<svg xmlns="http://www.w3.org/2000/svg" xmlns:xlink="http://www.w3.org/1999/xlink" width="438.885" height="355.995" viewBox="0 0 438.885 355.995">
  <defs>
    <radialGradient id="radial-gradient" cx="0.5" cy="0.5" r="0.5" gradientUnits="objectBoundingBox">
      <stop offset="0" stop-color="#4a77ff"/>
      <stop offset="1" stop-color="#3e44ff"/>
    </radialGradient>
    <filter id="Path_2" x="89" y="85" width="210.8" height="210.781" filterUnits="userSpaceOnUse">
      <feOffset input="SourceAlpha"/>
      <feGaussianBlur stdDeviation="3" result="blur"/>
      <feFlood flood-opacity="0.6"/>
      <feComposite operator="in" in2="blur"/>
      <feComposite in="SourceGraphic"/>
    </filter>
  </defs>
  <path id="blob_4_" data-name="blob (4)" d="M209.53,4.457C245.6,23.492,299.443,19.484,326.492,39.02c27.049,19.786,27.3,63.365,10.269,96.425-16.78,33.06-51.343,55.851-82.65,67.873-31.307,11.771-59.357,13.024-87.158,25.8s-55.1,37.067-90.915,46.584c-35.815,9.267-79.895,3.757-109.949-20.036-30.3-23.793-46.584-65.869-53.347-109.448S-91.014,57.3-70.226,23.742s59.608-55.35,97.176-73.884c37.318-18.784,73.132-34.312,100.432-20.788S173.215-14.828,209.53,4.457Z" transform="translate(90.491 76.041)" fill="#f4f8f9"/>
  <g transform="matrix(1, 0, 0, 1, 0, 0)" filter="url(#Path_2)">
    <path id="Path_2-2" data-name="Path 2" d="M73.137,191.37a96.254,96.254,0,0,0,25.256,3.412c.453,0,.906,0,1.359-.01a28.969,28.969,0,0,0,25.719-41.5l-1.909-4a19.274,19.274,0,0,1,25.719-25.728h.01l3.981,1.918a28.984,28.984,0,0,0,41.518-25.719,95.683,95.683,0,0,0-3.4-26.605C181.381,36.248,149.425,8.033,111.9,2.914A96.469,96.469,0,0,0,2.922,111.881C8.031,149.418,36.256,181.364,73.137,191.37ZM132.132,40.548a14.459,14.459,0,1,1-14.459,14.459A14.459,14.459,0,0,1,132.132,40.548Zm-48.2-9.64A14.459,14.459,0,1,1,69.474,45.367,14.459,14.459,0,0,1,83.933,30.908ZM69.474,132.182a14.459,14.459,0,1,1-14.459-14.459A14.459,14.459,0,0,1,69.474,132.182Zm-24.1-62.658A14.459,14.459,0,1,1,30.915,83.984,14.465,14.465,0,0,1,45.375,69.524Z" transform="translate(96 92)" fill="url(#radial-gradient)"/>
  </g>
</svg>
